<svg width="47" height="47" viewBox="0 0 47 47" fill="none" xmlns="http://www.w3.org/2000/svg">
<path fill-rule="evenodd" clip-rule="evenodd" d="M47 0H0V47H47V0ZM16.5536 10.5535H31.2857C34.5994 10.5535 37.2857 13.2398 37.2857 16.5535V29.6071C37.2857 32.9208 34.5994 35.6071 31.2857 35.6071H16.5536C13.2399 35.6071 10.5536 32.9208 10.5536 29.6071V16.5535C10.5536 13.2398 13.2399 10.5535 16.5536 10.5535ZM7.55357 16.5535C7.55357 11.5829 11.583 7.55349 16.5536 7.55349H31.2857C36.2563 7.55349 40.2857 11.5829 40.2857 16.5535V29.6071C40.2857 34.5776 36.2563 38.6071 31.2857 38.6071H16.5536C11.583 38.6071 7.55357 34.5776 7.55357 29.6071V16.5535ZM23.9196 28.8928C27.1298 28.8928 29.7321 26.2904 29.7321 23.0803C29.7321 19.8701 27.1298 17.2678 23.9196 17.2678C20.7095 17.2678 18.1071 19.8701 18.1071 23.0803C18.1071 26.2904 20.7095 28.8928 23.9196 28.8928ZM23.9196 31.8928C28.7867 31.8928 32.7321 27.9473 32.7321 23.0803C32.7321 18.2133 28.7867 14.2678 23.9196 14.2678C19.0526 14.2678 15.1071 18.2133 15.1071 23.0803C15.1071 27.9473 19.0526 31.8928 23.9196 31.8928ZM33.5714 15.9463C34.4985 15.9463 35.25 15.1948 35.25 14.2678C35.25 13.3407 34.4985 12.5892 33.5714 12.5892C32.6444 12.5892 31.8929 13.3407 31.8929 14.2678C31.8929 15.1948 32.6444 15.9463 33.5714 15.9463Z" fill="white"/>
</svg>
